<svg xmlns="http://www.w3.org/2000/svg" xml:space="preserve" viewBox="0 0 512 512">
  <circle cx="256" cy="256" r="232.7" style="opacity:.2;fill:#e05d44"/>
  <path d="M256 512C114.8 512 0 397.2 0 256S114.8 0 256 0s256 114.8 256 256-114.8 256-256 256m0-465.4c-115.5 0-209.5 94-209.5 209.5s94 209.5 209.5 209.5 209.5-94 209.5-209.5c0-115.6-94-209.5-209.5-209.5" style="fill:#e05d44"/>
  <g style="fill:none;stroke:#e05d44;stroke-width:20;stroke-linecap:round;stroke-linejoin:round">
    <rect x="130" y="150" width="252" height="170" rx="20"/>
    <line x1="220" y1="320" x2="190" y2="370"/>
    <line x1="292" y1="320" x2="322" y2="370"/>
    <line x1="170" y1="370" x2="342" y2="370"/>
    <path d="M160 235 q 30 -40, 60 0 t 60 0 t 60 0" style="stroke-width:16"/>
  </g>
</svg>
